<?xml version="1.0" encoding="utf-8"?>
<!-- Generator: Adobe Illustrator 18.0.0, SVG Export Plug-In . SVG Version: 6.00 Build 0)  -->
<!DOCTYPE svg PUBLIC "-//W3C//DTD SVG 1.1//EN" "http://www.w3.org/Graphics/SVG/1.1/DTD/svg11.dtd">
<svg version="1.1" id="Calque_2" xmlns="http://www.w3.org/2000/svg" xmlns:xlink="http://www.w3.org/1999/xlink" x="0px" y="0px"
	 viewBox="0 0 531 365.3" enable-background="new 0 0 531 365.3" xml:space="preserve">
<g id="Calque_4">
</g>
<g>
	<circle fill="#148AC7" cx="407.7" cy="166" r="3.4"/>
	<g>
		<path fill="#148AC7" d="M243.1,207.9c-4.7,8.7-12,12.9-21.7,12.8c-6.5-0.1-12-2.3-16.7-6.8c-4.7-4.5-7-9.9-7.1-16.4
			c-0.1-6.5,2.2-12,6.9-16.6c4.8-4.6,10.4-7,17-7.1c4.7-0.1,9.1,1.2,13.1,3.7c3.8,2.4,6.6,5.4,8.3,9.1l0.9,2h-6.7
			c-3.4-5.7-8.4-8.7-15.3-8.8c-4.6-0.1-8.7,1.6-12.4,5c-3.8,3.5-5.7,7.7-5.7,12.6c0,4.8,1.8,9,5.3,12.5c3.5,3.4,7.7,5.2,12.6,5.1
			c7-0.1,12.1-2.9,15.6-8.4h6.7L243.1,207.9z"/>
		<path fill="#148AC7" d="M253.9,219.7h-5.9v-60.3h5.9V219.7z"/>
		<path fill="#148AC7" d="M307.5,219.7h-5.8v-7c-4.9,5.6-10.8,8.2-17.8,8c-6.2-0.2-11.4-2.6-15.7-7.1c-4.3-4.5-6.5-9.9-6.5-16.2
			c0-6.5,2.3-12.1,7-16.7c4.6-4.7,10.2-6.9,16.7-6.6c6.3,0.2,11.6,2.6,16,7.2c4.4,4.5,6.5,9.9,6.3,16.1v0.3V219.7z M267.7,197
			c-0.1,4.7,1.4,8.8,4.6,12.4c3.2,3.5,7.1,5.3,11.7,5.6c4.9,0.2,9.1-1.5,12.5-5.1c3.5-3.7,5.2-8,5.1-12.9c-0.1-4.7-1.8-8.7-5-12
			s-7.1-5-11.7-5c-4.8,0-8.8,1.6-12.1,5C269.4,188.2,267.7,192.2,267.7,197z"/>
		<path fill="#148AC7" d="M320.6,219.7h-6.3v-44.6h5.6v6.3c1.3-2.4,3.1-4.2,5.6-5.6c2.3-1.2,4.5-1.7,6.9-1.6v5.9
			c-2.7,0.1-5,0.9-6.7,2.3c-1.7,1.4-2.9,2.7-3.5,3.7c-1,1.7-1.5,4-1.5,6.9V219.7z"/>
		<path fill="#148AC7" d="M376.9,214.1c-4.6,4.6-10.2,6.9-16.6,6.6c-6.2-0.2-11.5-2.5-15.8-7c-4.3-4.5-6.4-9.9-6.4-16.2
			c0-6.5,2.3-12.1,7-16.7c4.6-4.7,10.2-7,16.6-6.7c6.2,0.2,11.5,2.6,15.8,7.2c4.3,4.5,6.5,9.9,6.5,16.2
			C383.9,203.9,381.5,209.4,376.9,214.1z M360.3,214.9c4.9,0.2,9.1-1.4,12.5-5.1c3.5-3.7,5.2-7.9,5.1-12.8c-0.2-4.7-1.9-8.7-5.1-12
			c-3.2-3.4-7-5-11.6-5c-4.8-0.1-8.8,1.6-12.1,5c-3.4,3.4-5,7.4-5.1,12.1c-0.1,4.7,1.4,8.8,4.6,12.4
			C351.9,212.9,355.7,214.7,360.3,214.9z"/>
		<path fill="#148AC7" d="M397,219.7H391v-60.3h5.9V219.7z"/>
		<path fill="#148AC7" d="M410.6,219.7h-5.9v-44.6h5.9V219.7z"/>
		<path fill="#148AC7" d="M457.7,219.7h-6v-26c0-3.8-1.4-7-4.1-9.7c-2.7-2.7-5.9-4.1-9.5-4.1s-7,1.3-9.7,4.1
			c-2.7,2.7-4.1,5.9-4.1,9.7v26h-6v-25.4c0-5.8,1.9-10.6,5.6-14.4c3.8-3.8,8.4-5.8,14.2-5.8c5.6,0,10.3,2,14.1,5.8
			c3.8,3.8,5.6,8.6,5.6,14.4V219.7z"/>
		<path fill="#148AC7" d="M510.1,205.1c-1.6,4.8-4.5,8.6-8.4,11.4c-4,2.8-8.4,4.2-13.2,4.3c-6.1,0.1-11.5-2.1-16.2-6.6
			c-4.7-4.6-7.1-10-7.2-16.4c-0.2-6.6,2.2-12.4,7-17.2c4.9-4.9,10.6-7.1,17.3-6.7c5.9,0.4,11.1,2.8,15.5,7.4c4.2,4.5,6.3,9.5,6.3,15
			v3.2h-40.1c0.5,4.5,2.3,8.2,5.7,11.1c3.4,2.9,7.3,4.4,11.8,4.3c7-0.1,12-3.4,15.1-9.8H510.1z M505.3,194
			c-0.9-4.1-2.8-7.5-5.9-10.1c-3.1-2.6-6.7-3.9-11-4c-4.3-0.1-8.1,1.3-11.3,3.8c-3.2,2.6-5.2,6-6,10.2H505.3z"/>
	</g>
	<g>
		<path fill="#148AC7" d="M153.2,200.3c0.3,2.2,0.4,4.3,0.4,6.6c0,28.6-23.1,51.7-51.7,51.7c-28.6,0-51.7-23.1-51.7-51.7
			s23.1-51.7,51.7-51.7c3.2,0,6.3,0.3,9.3,0.8c1.5-10.4,7.1-19.5,15.2-25.6c-7.7-2.5-15.9-3.8-24.5-3.8c-44.3,0-80.3,35.9-80.3,80.3
			s35.9,80.3,80.3,80.3c44.3,0,80.3-35.9,80.3-80.3c0-7-0.9-13.9-2.6-20.4C173.2,194.1,163.8,199.3,153.2,200.3z"/>
		<path fill="#868888" d="M136.4,21c-27,0-48.9,21.9-48.9,48.9s21.9,48.9,48.9,48.9c27,0,48.9-21.9,48.9-48.9S163.5,21,136.4,21z
			 M136.4,105.4c-19.6,0-35.5-15.9-35.5-35.5s15.9-35.5,35.5-35.5s35.5,15.9,35.5,35.5S156,105.4,136.4,105.4z"/>
		<path fill="#868888" d="M164.3,138.7c-4.2-2.7-9.2-4.3-14.6-4.3c-15,0-27.1,12.1-27.1,27.1c0,15,12.1,27.1,27.1,27.1
			c15,0,27.1-12.1,27.1-27.1c0-5.8-1.8-11.1-4.9-15.6C168.8,144.2,166.3,141.7,164.3,138.7z M149.7,171.7c-5.6,0-10.1-4.5-10.1-10.1
			s4.5-10.1,10.1-10.1s10.1,4.5,10.1,10.1S155.3,171.7,149.7,171.7z"/>
		<path fill="#868888" d="M183.7,87.7c-7.9,0-15.3,2.4-21.4,6.5c-1.9,2-4,3.8-6.3,5.3c-6.6,6.9-10.7,16.2-10.7,26.6
			c0,21.2,17.2,38.4,38.4,38.4c21.2,0,38.4-17.2,38.4-38.4S204.9,87.7,183.7,87.7z M183.7,149.2c-12.8,0-23.1-10.4-23.1-23.1
			c0-12.8,10.4-23.1,23.1-23.1s23.1,10.4,23.1,23.1C206.8,138.9,196.5,149.2,183.7,149.2z"/>
	</g>
	
		<text transform="matrix(1 0 0 1 197.8166 288.001)" fill="#868888" font-family="'AbeatbyKai'" font-size="74.5958" letter-spacing="3">connect</text>
	<text transform="matrix(1 0 0 1 19.8371 326.0879)" fill="#868888" font-family="'CenturyGothic'" font-size="25.4096">EASY &amp; FLEXIBLE LEARNING SOLUTIONS</text>
</g>
</svg>
